<svg xmlns="http://www.w3.org/2000/svg" width="376.871" height="816.19" viewBox="0 0 376.871 816.19"><g transform="translate(0 1.831)"><rect width="376.871" height="816.19" transform="translate(0 -1.831)" fill="#f3f5fc"/><g transform="translate(0 445.451)"><path d="M2323.032,3000.064c.019.013,318.9-.042,318.9-.042s1.04-2.131,2.343-4.921c.966-2.067,2.162-4.812,3.405-8.115h0q.347-.921.7-1.9.49-1.374.98-2.853.182-.548.361-1.109c.719-2.247,1.419-4.658,2.064-7.208q.067-.267.134-.537.362-1.464.7-2.989.186-.846.362-1.709l.023-.118c.044-.213.086-.427.128-.642a105.7,105.7,0,0,0,1.755-13.029q.084-1.2.139-2.427t.081-2.485a86.9,86.9,0,0,0-1.137-16.012c-.357-2.138-.8-4.29-1.352-6.448q-.6-2.366-1.366-4.737c-.094-.294-.19-.589-.291-.884a75.508,75.508,0,0,0-4.455-10.537c-.161-.314-.326-.63-.495-.945a77.388,77.388,0,0,0-4.591-7.543q-.263-.383-.533-.765-1.5-2.126-3.2-4.225-2.468-3.059-5.374-6.041-4.024-4.126-7.979-7.5-1.626-1.4-3.242-2.676-1.383-1.1-2.759-2.108l-.156-.115q-3.182-2.339-6.306-4.245c-.425-.259-.849-.515-1.274-.765q-3.065-1.806-6.073-3.237-.656-.315-1.31-.611a72.3,72.3,0,0,0-37.661-6.019c-8.692.8-16.509,2.7-23.232,4.063q-.662.134-1.31.261a47.373,47.373,0,0,1-11.6,1.192c-5.323-.348-9.663-3.582-14.327-8.352q-.509-.521-1.024-1.065c-2.719-2.872-5.576-6.221-8.823-9.788q-.887-.976-1.818-1.972c-1.227-1.312-2.51-2.648-3.861-3.993-.208-.208-.417-.415-.629-.623q-.684-.672-1.394-1.347c-.208-.2-.417-.4-.63-.6q-2.3-2.16-4.876-4.312a97.5,97.5,0,0,0-29-16.665l-.017-.007a121.709,121.709,0,0,0-17.271-4.922,182.005,182.005,0,0,0-22.159-3.195q-2.781-.232-5.59-.382-3.014-.16-6.046-.226-1.818-.037-3.639-.04c-3-.005-6,.067-8.988.22q-1.589.079-3.168.19c-12.912.9-25.352,3.349-35.849,7.718-7.362,3.062-35.1,16.763-43.239,39.939a40.1,40.1,0,0,0-.6,24.739c9.173,32.435,36.16,36.472,18.686,51.929C2311.835,2957.959,2304.326,2985.795,2323.032,3000.064Z" transform="translate(-2301.835 -2794.158)" fill="#dde8fd"/><rect width="72.775" height="45.276" transform="translate(0 82.991)" fill="#fa7269"/><rect width="88.366" height="132.444" transform="translate(217.399 74.012)" fill="#93b3f4"/><rect width="105.716" height="140.661" transform="translate(72.769 65.464)" fill="#93b3f4"/><rect width="151.122" height="68.605" transform="translate(68.553 18.297)" fill="#fa7269"/><path d="M2575.6,2858.191l79.449-75.118,79.449,75.118Z" transform="translate(-2426.623 -2780.156)" fill="#93b3f4"/><g transform="translate(165.19)"><path d="M2755.563,2862.942a2.906,2.906,0,0,1-1.983-.777l-83.9-73c-26.725,24.333-57.766,47.769-58.7,48.39a2.918,2.918,0,0,1-3.373-4.76c1.923-1.59,36.936-33.414,60.108-54.514a2.923,2.923,0,0,1,3.948.017l85.886,79.582a2.918,2.918,0,0,1-1.983,5.06Z" transform="translate(-2606.442 -2777.524)" fill="#fa7269"/></g><rect width="105.716" height="140.661" transform="translate(125.627 65.464)" fill="#bed2fa"/><path d="M2531.186,2856.961l52.858-49.976,52.858,49.976Z" transform="translate(-2405.559 -2791.497)" fill="#bed2fa"/><g transform="translate(147.91 65.811)"><path d="M2632.806,2919.812v27.221h-31.054v-26.7a15.7,15.7,0,0,1,5.117-11.635,14.6,14.6,0,0,1,1.615-1.284,12.149,12.149,0,0,1,1.732-1.071,15.643,15.643,0,0,1,7.316-1.791,14.831,14.831,0,0,1,7.277,1.868,9.627,9.627,0,0,1,1.731,1.089A13.94,13.94,0,0,1,2628,2908.7,15.213,15.213,0,0,1,2632.806,2919.812Z" transform="translate(-2586.937 -2903.584)" fill="#93b3f4"/><g transform="translate(14.423)"><path d="M2632.968,2914.849h-31.961l.494-1.315a16.693,16.693,0,0,1,4.361-6.428,15.425,15.425,0,0,1,1.72-1.366,12.773,12.773,0,0,1,1.835-1.134,16.717,16.717,0,0,1,7.762-1.9,15.714,15.714,0,0,1,7.752,1.991,10.509,10.509,0,0,1,1.856,1.172,14.025,14.025,0,0,1,1.517,1.237,16.337,16.337,0,0,1,4.21,6.447Zm-29.077-1.946h26.26a14.556,14.556,0,0,0-3.174-4.372,12.6,12.6,0,0,0-1.345-1.094,8.826,8.826,0,0,0-1.6-1.013,13.843,13.843,0,0,0-6.852-1.771,14.762,14.762,0,0,0-6.862,1.677,10.869,10.869,0,0,0-1.6.988,13.442,13.442,0,0,0-1.543,1.222A14.827,14.827,0,0,0,2603.89,2912.9Z" transform="translate(-2601.006 -2902.707)" fill="#fff"/></g><rect width="60.689" height="32.266" transform="translate(0 11.175)" fill="#93b3f4"/><g transform="translate(29.371 11.174)"><rect width="1.946" height="32.267" fill="#fff"/></g><g transform="translate(0.716 21.084)"><rect width="58.643" height="0.973" fill="#fff"/></g><g transform="translate(0.716 31.686)"><rect width="58.643" height="0.973" fill="#fff"/></g><g transform="translate(15.873 11.174)"><rect width="1.946" height="32.267" fill="#fff"/></g><g transform="translate(42.87 11.174)"><rect width="1.946" height="32.267" fill="#fff"/></g><g transform="translate(58.743 11.174)"><rect width="1.946" height="32.267" fill="#fff"/></g><g transform="translate(0 11.174)"><rect width="1.946" height="32.267" fill="#fff"/></g><g transform="translate(0.003 41.496)"><rect width="60.689" height="1.946" fill="#fff"/></g><g transform="translate(0.003 11.174)"><rect width="60.689" height="1.946" fill="#fff"/></g><g transform="translate(21.548 2.763)"><path d="M2632.614,2909.13l-9.165,9.709-8.891-9.806a12.147,12.147,0,0,1,1.732-1.07l7.18,7.919,7.413-7.842A9.612,9.612,0,0,1,2632.614,2909.13Z" transform="translate(-2614.558 -2907.963)" fill="#fff"/></g></g><g transform="translate(147.91 141.718)"><rect width="60.689" height="32.266" transform="translate(0 0.001)" fill="#93b3f4"/><g transform="translate(29.371)"><rect width="1.946" height="32.267" fill="#fff"/></g><g transform="translate(0.716 9.91)"><rect width="58.643" height="0.973" fill="#fff"/></g><g transform="translate(0.716 20.512)"><rect width="58.643" height="0.973" fill="#fff"/></g><g transform="translate(15.873)"><rect width="1.946" height="32.267" fill="#fff"/></g><g transform="translate(42.87)"><rect width="1.946" height="32.267" fill="#fff"/></g><g transform="translate(58.743)"><rect width="1.946" height="32.267" fill="#fff"/></g><rect width="1.946" height="32.267" fill="#fff"/><g transform="translate(0.003 30.322)"><rect width="60.689" height="1.946" fill="#fff"/></g><g transform="translate(0.003)"><rect width="60.689" height="1.946" fill="#fff"/></g></g><g transform="translate(87.217 141.718)"><rect width="26.897" height="32.266" transform="translate(0 0.001)" fill="#6d89cf"/><g transform="translate(25.227)"><rect width="1.671" height="32.267" fill="#fff"/></g><g transform="translate(0.317 9.91)"><rect width="25.99" height="0.973" fill="#fff"/></g><g transform="translate(0.317 20.512)"><rect width="25.99" height="0.973" fill="#fff"/></g><g transform="translate(12.477)"><rect width="1.671" height="32.267" fill="#fff"/></g><rect width="1.671" height="32.267" fill="#fff"/><g transform="translate(0.002 30.322)"><rect width="26.897" height="1.946" fill="#fff"/></g><g transform="translate(0.002)"><rect width="26.897" height="1.946" fill="#fff"/></g></g><g transform="translate(87.217 95.511)"><rect width="26.897" height="32.266" transform="translate(0 0.001)" fill="#6d89cf"/><g transform="translate(25.227)"><rect width="1.671" height="32.267" fill="#fff"/></g><g transform="translate(0.317 9.91)"><rect width="25.99" height="0.973" fill="#fff"/></g><g transform="translate(0.317 20.512)"><rect width="25.99" height="0.973" fill="#fff"/></g><g transform="translate(12.477)"><rect width="1.671" height="32.267" fill="#fff"/></g><rect width="1.671" height="32.267" fill="#fff"/><g transform="translate(0.002 30.322)"><rect width="26.897" height="1.946" fill="#fff"/></g><g transform="translate(0.002)"><rect width="26.897" height="1.946" fill="#fff"/></g></g><g transform="translate(254.651 70.761)"><rect width="26.897" height="32.266" transform="translate(0 0.001)" fill="#6d89cf"/><g transform="translate(25.227)"><rect width="1.671" height="32.267" fill="#fff"/></g><g transform="translate(0.317 9.91)"><rect width="25.99" height="0.973" fill="#fff"/></g><g transform="translate(0.317 20.512)"><rect width="25.99" height="0.973" fill="#fff"/></g><g transform="translate(12.477)"><rect width="1.671" height="32.267" fill="#fff"/></g><rect width="1.671" height="32.267" fill="#fff"/><g transform="translate(0.002 30.322)"><rect width="26.897" height="1.946" fill="#fff"/></g><g transform="translate(0.002)"><rect width="26.897" height="1.946" fill="#fff"/></g></g><g transform="translate(115.25 12.571)"><path d="M2514.367,2861.959a2.919,2.919,0,0,1-1.758-5.25c1.925-1.59,36.936-33.413,60.108-54.514a2.923,2.923,0,0,1,3.948.017l59.019,54.687a2.919,2.919,0,1,1-3.968,4.282l-57.684-46.811c-25.035,21.512-57.117,46.476-58.051,47.1A2.892,2.892,0,0,1,2514.367,2861.959Z" transform="translate(-2511.447 -2801.436)" fill="#fb8d86"/></g><rect width="72.769" height="77.323" transform="translate(0 128.275)" fill="#bed2fa"/><rect width="78.101" height="31.053" transform="translate(231.35 108.519)" fill="#e56a67"/><g transform="translate(235.927 150.111)"><g transform="translate(13.514)"><path d="M2794.873,3110.807H2766.7v-33.578a14.168,14.168,0,0,1,14.168-14.168h0a14,14,0,0,1,14,14.005Z" transform="translate(-2766.7 -3063.061)" fill="#fff"/><path d="M2794.6,3080.611v.623h-22.823v-.506a10.953,10.953,0,0,1,10.954-10.954h1.031A10.828,10.828,0,0,1,2794.6,3080.611Z" transform="translate(-2769.11 -3066.244)" fill="#afa18e"/><rect width="22.823" height="9.173" transform="translate(2.672 18.525)" fill="#afa18e"/><rect width="22.823" height="14.993" transform="translate(2.672 30.726)" fill="#afa18e"/></g><rect width="42.197" height="3.04" transform="translate(6.502 47.224)" fill="#fff"/><rect width="49.337" height="3.04" transform="translate(2.933 50.264)" fill="#fff"/><rect width="55.202" height="3.04" transform="translate(0 53.304)" fill="#fff"/></g><g transform="translate(19.909 142.475)"><rect width="36.771" height="44.112" transform="translate(0 0.001)" fill="#93b3f4"/><g transform="translate(34.489)"><rect width="2.285" height="44.113" fill="#fff"/></g><g transform="translate(0.434 13.548)"><rect width="35.532" height="1.33" fill="#fff"/></g><g transform="translate(0.434 28.042)"><rect width="35.532" height="1.33" fill="#fff"/></g><g transform="translate(17.058)"><rect width="2.285" height="44.113" fill="#fff"/></g><rect width="2.285" height="44.113" fill="#fff"/><g transform="translate(0.002 41.454)"><rect width="36.771" height="2.66" fill="#fff"/></g><g transform="translate(0.002)"><rect width="36.771" height="2.66" fill="#fff"/></g></g><path d="M2340.19,2980.664h-47.968v-45.277h27.849Z" transform="translate(-2292.222 -2852.396)" fill="#fb8d86"/><path d="M2463.773,2880.933h-41.151v-68.6h15.468C2442.507,2824.547,2456.049,2860.483,2463.773,2880.933Z" transform="translate(-2354.069 -2794.031)" fill="#fb8d86"/><g transform="translate(110.386 6.937)"><path d="M4.169,0h0A4.09,4.09,0,0,1,8.26,4.09V18.666a0,0,0,0,1,0,0H0a0,0,0,0,1,0,0V4.169A4.169,4.169,0,0,1,4.169,0Z" transform="translate(1.936 7.454)" fill="#fc9290"/><path d="M2502.194,2796.415h12.039l-5.974-5.694Z" transform="translate(-2502.194 -2790.72)" fill="#fa7269"/><g transform="translate(2.907 5.531)"><path d="M2508.341,2803.166h-.536l-.082-1.923h.735Z" transform="translate(-2507.723 -2801.242)" fill="#fa7269"/></g><g transform="translate(8.426 5.531)"><path d="M2518.839,2803.166h-.536l-.082-1.923h.735Z" transform="translate(-2518.221 -2801.242)" fill="#fa7269"/></g></g><path d="M2904.591,3158.141h-10.07c-.54-.458.374-1.5,1.328-1.567a5.9,5.9,0,0,1,1.537.182c.139-1.841.93-10.114,3.912-9.782,3.354.372,0,3.644-.948,5.581a46.159,46.159,0,0,0-1.781,4.463c.272.059.554.117.842.17.444-1.365,2.1-5.955,4.2-5.688,2.469.313,1.477,2.154-.273,3.246-1.284.8-2.861,1.946-3.61,2.5a10.685,10.685,0,0,0,1.969.158A4.247,4.247,0,0,1,2904.591,3158.141Z" transform="translate(-2577.806 -2952.744)" fill="#36c14a"/><g transform="translate(9.348 176.484)"><path d="M2373.435,3115.53v26.847l-63.431.018a19.6,19.6,0,0,1,10.019-11.131,18.5,18.5,0,0,1,2.47-1.04,25.88,25.88,0,0,1,3.4-.917.065.065,0,0,0,.053-.017,11.7,11.7,0,0,0,1.588-.424c11.289-3.793,11.8-21.344,44.2-13.759Q2372.616,3115.318,2373.435,3115.53Z" transform="translate(-2310.004 -3113.225)" fill="#36c14a"/><path d="M2325.079,3141.973s-9.508-12.63-13.765-9.224S2325.079,3141.973,2325.079,3141.973Z" transform="translate(-2310.316 -3122.208)" fill="#36c14a"/><path d="M2339.009,3138.109c0-.568.142-12.2-3.832-11.353S2339.009,3138.109,2339.009,3138.109Z" transform="translate(-2321.408 -3119.621)" fill="#36c14a"/></g><g transform="translate(116.35 177.754)"><path d="M2513.539,3148.875s4.541-9.673,14.758-9.8,15.855-12.05,25.382-11.483,10.663,9.91,17.474,11.483,25.543-1.813,26.679,10.381Z" transform="translate(-2513.539 -3121.299)" fill="#36c14a"/><path d="M2545.952,3138.838c0-.13-7.379-13.793-10.075-11.5S2545.952,3138.838,2545.952,3138.838Z" transform="translate(-2523.956 -3121.065)" fill="#36c14a"/><path d="M2541.039,3147.387s-6.6-4.044-9.72-3.051S2541.039,3147.387,2541.039,3147.387Z" transform="translate(-2521.74 -3129.176)" fill="#36c14a"/><path d="M2576.676,3125.551c.071-.426-.142-11.14-3.69-9.791S2576.676,3125.551,2576.676,3125.551Z" transform="translate(-2541.269 -3115.642)" fill="#36c14a"/><path d="M2584.783,3125.334c.142-.213,2.27-5.96.71-5.96s-.568,5.747-.568,5.747Z" transform="translate(-2547.248 -3117.412)" fill="#36c14a"/></g><rect width="376.871" height="1.058" transform="translate(0 205.398)" fill="#212a42"/></g><rect width="231.344" height="49.591" transform="translate(0 651.907)" fill="#b8f7a9"/><rect width="71.106" height="49.591" transform="translate(305.765 651.907)" fill="#b8f7a9"/><rect width="74.422" height="57.54" transform="translate(231.344 651.907)" fill="#eaeaea"/><rect width="231.344" height="7.949" transform="translate(0 701.498)" fill="#eaeaea"/><rect width="71.106" height="7.949" transform="translate(305.765 701.498)" fill="#eaeaea"/><rect width="376.871" height="104.912" transform="translate(0 709.447)" fill="#d1d1d1"/><g transform="translate(16.32 755.476)"><path d="M2659.619,3372.5h-22.424v-5.257h22.424Zm-44.847,0h-22.423v-5.257h22.423Zm-44.847,0H2547.5v-5.257h22.423Zm-44.847,0h-22.423v-5.257h22.423Zm-44.847,0h-22.423v-5.257h22.423Zm-44.847,0H2412.96v-5.257h22.424Zm-44.847,0h-22.424v-5.257h22.424Zm-44.847,0h-22.423v-5.257h22.423Z" transform="translate(-2323.266 -3367.243)" fill="#f3f5fc"/></g><path d="M2442.924,3078.888a15.8,15.8,0,0,0-9.555-14.516,13.9,13.9,0,0,0-17.495-16.688c.007-.2.015-.393.015-.591,0-.064,0-.126-.005-.19s.005-.127.005-.191a13.708,13.708,0,1,0-27.416,0c0,.063,0,.127.005.191s-.005.125-.005.19c0,.329.016.655.039.978a13.9,13.9,0,0,0-17.519,16.68,15.8,15.8,0,0,0-.93,28.593,14.658,14.658,0,0,0,21.043,18,11.806,11.806,0,0,0,22.26-.318,14.658,14.658,0,0,0,20.934-18.064,15.8,15.8,0,0,0,8.625-14.077" transform="translate(-2325.05 -2453.243)" fill="#3dd85a"/><path d="M2442.03,3142.9a4.6,4.6,0,0,1-2.891-8.075l.2-.172-1.377-1.59-.2.172a6.717,6.717,0,0,0-.27,9.9,8.315,8.315,0,0,1-13.135,2.8,8.125,8.125,0,0,1-.757-.779v-.009c0-.036-.008-.073-.014-.109l-.046-.261-.22.04a8.319,8.319,0,0,1-1.229-7.888,6.741,6.741,0,0,0,1.517-.525,6.715,6.715,0,0,0,3.74-6.708l-.027-.262-2.091.213.026.262a4.61,4.61,0,0,1-2.568,4.6,4.613,4.613,0,0,1-6.63-4.241l.006-.263-2.1-.044-.006.263a6.692,6.692,0,0,0,4.526,6.487,6.761,6.761,0,0,0,1.377.318,10.393,10.393,0,0,0,1.737,8.977,8.3,8.3,0,0,1-10.31,8.961c-3.4-.869-5.665-4.672-6.13-7.9l.064-.019a10.393,10.393,0,0,0,5.657-15.595,6.7,6.7,0,0,0,2.74-7.561l-.077-.251-2.011.614.077.252a4.611,4.611,0,1,1-8.953,2.143l-.045-.259-2.071.365.045.259a6.717,6.717,0,0,0,7.773,5.448c.185-.033.374-.076.584-.135a8.315,8.315,0,0,1-4.342,12.712,8.53,8.53,0,0,1-1.036.251,8.271,8.271,0,0,1-7.857-2.934,6.707,6.707,0,0,0-3.5-8.221l-.238-.112-.892,1.9.238.111a4.611,4.611,0,0,1,1.007,7.7,4.595,4.595,0,0,1-5.418.379l-.223-.14-1.118,1.781.223.14a6.689,6.689,0,0,0,8.865-1.571,10.4,10.4,0,0,0,8.445,3.141c.615,3.96,3.408,8.444,7.676,9.536.251.064.5.106.756.152V3182.7h4.2v-25.645a10.443,10.443,0,0,0,7.711-7.551,9.959,9.959,0,0,0,.25-1.412,10.4,10.4,0,0,0,8.04,1.906,10.35,10.35,0,0,0,7.518-5.648,6.768,6.768,0,0,0,2.65.658l.248.01.025-.247c.054-.539.1-1.076.122-1.6l.014-.268Z" transform="translate(-2336.488 -2496.232)" fill="#756150"/><path d="M2390.258,3082.423a11,11,0,0,1,13.718-10.7,9.98,9.98,0,1,0-12.637,15.439,10.973,10.973,0,0,1-1.081-4.74" transform="translate(-2337.389 -2470.448)" fill="#5ff974"/><path d="M2423.769,3048.825a11,11,0,0,1,17.266,2.135,9.98,9.98,0,1,0-19.853,1.981,10.982,10.982,0,0,1,2.587-4.117" transform="translate(-2353.347 -2457.361)" fill="#5ff974"/><path d="M2462.233,3071.711a11,11,0,0,1,10.7,13.719,9.98,9.98,0,1,0-15.44-12.637,10.967,10.967,0,0,1,4.74-1.082" transform="translate(-2370.607 -2470.271)" fill="#5ff974"/><path d="M2587.308,3213.03a5.137,5.137,0,0,0,0-10.273v-.032s-4.085-.516-5.257-3.627c0-.006-.006-.012-.008-.019a11.259,11.259,0,0,0-21.491-1.713,8,8,0,1,0-2.3,15.664Z" transform="translate(-2414.6 -2527.8)" fill="#3dd85a"/><path d="M2675.432,2644.04a18.567,18.567,0,0,1,0-37.135v-.119s14.768-1.865,19-13.11c.009-.024.023-.043.032-.067a40.7,40.7,0,0,1,77.687-6.192,28.923,28.923,0,1,1,8.316,56.623Z" transform="translate(-2465.166 -2229.627)" fill="#dde8fd"/><path d="M2442.3,2223.87a9.709,9.709,0,0,0,0-19.419v-.062s-25.613.681-28.378-6.855c0-.012-.012-.023-.017-.035a21.282,21.282,0,0,0-40.625-3.238,15.125,15.125,0,1,0-4.349,29.61Z" transform="translate(-2321.428 -2049.019)" fill="#dde8fd"/><path d="M2927.153,3204.24a3.283,3.283,0,0,1,0-6.566v-.021s8.66.231,9.6-2.318c0,0,0-.007.006-.012a7.2,7.2,0,0,1,13.736-1.094,5.114,5.114,0,1,1,1.47,10.012Z" transform="translate(-2591.802 -2527.537)" fill="#3dd85a"/><path d="M2382.635,2376.333a11.774,11.774,0,0,0-2.847.35,12.362,12.362,0,0,0-24.31,4.322,10.981,10.981,0,0,1-10.568,4.666,7.066,7.066,0,1,0,0,14.131h37.725a11.734,11.734,0,0,0,0-23.468Z" transform="translate(-2313.86 -2137.427)" fill="#dde8fd"/><path d="M2665.9,2070.236a28.194,28.194,0,0,1,6.829.839,29.656,29.656,0,0,1,58.539,6.727,30.018,30.018,0,0,1-.229,3.638,26.346,26.346,0,0,0,25.348,11.191,16.947,16.947,0,0,1,0,33.895H2665.9a28.145,28.145,0,1,1,0-56.289Z" transform="translate(-2456.102 -1986.14)" fill="#dde8fd"/><path d="M2350.414,2624.888a14.444,14.444,0,0,1-16.4-10.673,14.515,14.515,0,0,0-5.4,1.047,25.468,25.468,0,0,0-25.312-28.64,25.383,25.383,0,0,0-11.075,2.531v64.89h58.192a14.577,14.577,0,1,0,0-29.155Z" transform="translate(-2292.222 -2241.531)" fill="#dde8fd"/><ellipse cx="73.329" cy="5.577" rx="73.329" ry="5.577" transform="translate(102.382 732.277)" fill="#bcbcbc"/><g transform="translate(93.371 694.355)"><path d="M2612.719,3263.257c-.148-.24-15.5-4.93-15.5-4.93l-16.973-.73s-12.4,2.006-14.925,3.145-10.416,7.337-11.313,8.264-1.251,4.334-1.114,4.191,19.63,1.018,24.4,1.287,6.838,1.415,18.306-.329,9.784.718,12.5-2.068a32.641,32.641,0,0,0,4.619-6.256l-.407-2.323" transform="translate(-2509.21 -3254.119)" fill="#848484"/><g transform="translate(0 0)"><path d="M2487.445,3309.191a13.044,13.044,0,1,1,22.871.541c16.686.173,41.963.184,58.788.027a13.046,13.046,0,1,1,23.014-.9c8.181-.854,16.795-2.2,16.795-2.2s4.317-7.268,4.343-9.715c-5.1.311-15.472.911-16.936.74-1.954-.228-4.125-9.977-15.946-10.4s-14.886,9.543-18.143,13.429-47.552,5.765-47.552,5.765.98-18.364-14.983-18.337c-17.821.03-15.849,18.565-15.849,18.565l-13.406-.036c.163,1.332.326,2.2.326,2.2S2479.87,3309.007,2487.445,3309.191Z" transform="translate(-2470.119 -3268.193)" fill="#878787"/><path d="M2513.054,3292.786a13.03,13.03,0,0,0-11.584,19.021c3.091.076,5.929.159,7.787.244,2.755.126,8.187.226,15.084.3a13.028,13.028,0,0,0-11.287-19.562Z" transform="translate(-2484.144 -3270.808)" fill="#6d6d6d"/><path d="M2667.783,3292.786a13.027,13.027,0,0,0-11.27,19.589c7.762-.072,13.728-.18,16.214-.324,2.082-.121,4.423-.328,6.8-.576a13.019,13.019,0,0,0-11.744-18.688Z" transform="translate(-2557.529 -3270.808)" fill="#6d6d6d"/><path d="M2612.965,3279.734c-5.1.311-15.472.91-16.937.74-1.954-.228-4.125-9.977-15.946-10.4s-14.886,9.542-18.143,13.429-47.552,5.765-47.552,5.765.98-18.363-14.983-18.337c-17.821.03-15.849,18.565-15.849,18.565l-13.406-.036a33.857,33.857,0,0,1-.08-8.543c.608-4.039,2.893-6.939,4.622-7.765,5.854-2.8,31.646-7.312,31.646-7.312s13.406-9.673,22.381-11.921a82.737,82.737,0,0,1,24.861-2.855,62.458,62.458,0,0,1,21.4,5.1c15.7,6.816,33.206,9.673,33.206,9.673S2613.01,3275.639,2612.965,3279.734Zm-37.346-19.66a85.14,85.14,0,0,0-15.977-5.5,32.064,32.064,0,0,0-3.889-.666c-9.7-1.1-21.878,1.2-27.179,2.84-7.961,2.461-14.847,10.049-14.847,10.049s1.333,0,3.577-.011c6.547-.025,20.844-.1,32.4-.32,1.5-.028,2.951-.059,4.335-.092,5.52-.132,9.941-.3,11.8-.531C2573,3264.971,2575.619,3260.074,2575.619,3260.074Z" transform="translate(-2469.829 -3250.981)" fill="#9e9e9e"/><path d="M2599.246,3256.951a85.132,85.132,0,0,1,15.977,5.5s-2.624,4.9-9.779,5.765c-1.862.226-6.283.4-11.8.531-1.384.033-2.836.064-4.335.092l.948-10.079a100.907,100.907,0,0,0-18.891,1.52c-6.742,1.383-12.416,6.746-14.454,8.879-2.244.009-3.578.012-3.578.012s6.886-7.588,14.847-10.049c5.3-1.639,17.479-3.936,27.179-2.84A32.059,32.059,0,0,1,2599.246,3256.951Zm9.654,4.707a55.66,55.66,0,0,0-12.351-3.053c-2.34-.146-2.483.23-2.714.809a23.457,23.457,0,0,0-.76,6.134c0,1.569,1.954,1.394,3.963,1.357,1.606-.03,9.174.025,12.341-1.629C2611.489,3264.176,2610.662,3262.455,2608.9,3261.659Z" transform="translate(-2509.432 -3253.361)" fill="#515151"/><path d="M2475.842,3297.576a14.353,14.353,0,0,1,1.89-2.462c1.939-1.421,5.634-2.049,9.327-2.34,2.37-.187,1.462,1.65.509,2.989a2.4,2.4,0,0,1-2.463,1.4C2482.787,3297.246,2475.842,3297.576,2475.842,3297.576Z" transform="translate(-2472.681 -3270.797)" fill="#fff"/><path d="M2560.394,3300.521c-3.812,0-5.05-1.874-5.477-2.521-1.3-1.962-2-3.942-2-8.779l.217-8.5.73,0-.286,8.479c0,4.754.423,6.634,1.7,8.568.469.711,1.716,2.588,5.992,2.293,6.991-.5,23.229-1.708,25.935-2.053,3.226-.412,3.258-1.115,3.375-3.733.015-.333.031-.7.055-1.088.214-3.452.131-12.736.13-12.83l.81-.014c0,.094-.02,9.678-.234,13.146-.025.39-.041.75-.055,1.081-.121,2.684-.437,3.413-4.026,3.871-2.715.347-18.963,1.556-25.959,2.055Q2560.826,3300.52,2560.394,3300.521Z" transform="translate(-2509.236 -3264.903)" fill="#878787"/><path d="M2541.165,3288.617s17-.621,23.938-1.031c8.034-.475,30.516-.953,36.1-1.031-.328.434-.923,1.121-.923,1.121s-27.239.979-33.786,1.1c-4.5.081-17.328.531-22.985.443A7.32,7.32,0,0,1,2541.165,3288.617Z" transform="translate(-2503.663 -3267.853)" fill="#878787"/><path d="M2612.594,3285.886h-5.369a.96.96,0,0,1-.957-.957h0a.959.959,0,0,1,.957-.956h5.369a.959.959,0,0,1,.956.956h0A.96.96,0,0,1,2612.594,3285.886Z" transform="translate(-2534.54 -3266.629)" fill="#ccc"/><path d="M2554.06,3269.014l-.73,0c.052-.06,5.156-6.069,10.778-8.587a61.134,61.134,0,0,1,17.429-4.3c4.073-.36,12.548-1.108,18.765.7,6.063,1.766,15.21,5.194,15.3,5.232l.294.118-.217.231c-.159.17-3.094,3.982-6.568,5.257-2.477.909-7.059.868-7.268.865l.006-.217a38.3,38.3,0,0,0,6.964-1.273c2.068-.724,5.222-3.676,6.076-4.551-1.65-.658-9.281-3.667-14.712-5.248-6.137-1.789-14.559-1.043-18.6-.686a61.459,61.459,0,0,0-17.217,4.432C2558.82,3263.474,2554.285,3268.771,2554.06,3269.014Z" transform="translate(-2509.432 -3253.204)" fill="#878787"/><path d="M2725.221,3281.06l-6.8,2.488h7.817Z" transform="translate(-2587.731 -3265.247)" fill="#fbcb43"/><path d="M2703.337,3288.241c.709,1.148,3.048,4.983,4.64,5.487a11.752,11.752,0,0,0,5.5,0c1.3-.363-1.737-3.163-2.75-4.152s-2.678-2.833-4.271-2.888S2701.929,3285.959,2703.337,3288.241Z" transform="translate(-2580.402 -3267.853)" fill="#878787"/><path d="M2469.868,3312.7s4.476.05,6.052,0,2.767,2.63,0,3.462a19.767,19.767,0,0,1-5.945.642Z" transform="translate(-2469.847 -3280.253)" fill="#878787"/><g transform="translate(18.044 24.34)"><circle cx="6.382" cy="6.382" r="6.382" transform="translate(4.751 4.816)" fill="#fff"/><path d="M2526.3,3308.355a11.074,11.074,0,1,1-11.074-11.075A11.075,11.075,0,0,1,2526.3,3308.355Zm-2.991,0a8.083,8.083,0,1,0-8.083,8.083A8.083,8.083,0,0,0,2523.31,3308.355Z" transform="translate(-2504.152 -3297.28)" fill="#444"/><path d="M2526.009,3311.053a8.083,8.083,0,1,1-8.083-8.083A8.083,8.083,0,0,1,2526.009,3311.053Zm-1.825,0a6.258,6.258,0,1,0-6.258,6.259A6.258,6.258,0,0,0,2524.184,3311.053Z" transform="translate(-2506.851 -3299.979)" fill="#515151"/><path d="M2525.883,3312.207a6.8,6.8,0,1,1-6.8-6.8A6.8,6.8,0,0,1,2525.883,3312.207Zm-12.552,1.416a5.359,5.359,0,0,0,2.909-2.469,4.965,4.965,0,0,0-1.022-3.438,5.63,5.63,0,0,0-2.065,4.492A5.935,5.935,0,0,0,2513.331,3313.623Zm4.49,1.009c-1.207-.974-3.289-.392-4.2-.117a5.773,5.773,0,0,0,5.042,3.6A5.16,5.16,0,0,0,2517.821,3314.631Zm1.258-5.335a5.364,5.364,0,0,0,3.222-2.057,5.9,5.9,0,0,0-3.222-.957,5.447,5.447,0,0,0-3.1.883A5.115,5.115,0,0,0,2519.079,3309.3Zm5.458,5.2c-.959-.278-2.92-.8-4.08.132a5.155,5.155,0,0,0-.846,3.473A5.745,5.745,0,0,0,2524.537,3314.5Zm.3-.923a5.9,5.9,0,0,0,.166-1.369,5.681,5.681,0,0,0-2.009-4.441,4.95,4.95,0,0,0-.956,3.388A5.252,5.252,0,0,0,2524.837,3313.576Z" transform="translate(-2508.004 -3301.132)" fill="#ccc"/><path d="M2525.333,3317.133a1.178,1.178,0,1,1-1.178-1.179A1.178,1.178,0,0,1,2525.333,3317.133Z" transform="translate(-2513.08 -3306.137)" fill="#5b5b5b"/><path d="M2525.27,3317.709a.54.54,0,1,1-.539-.54A.539.539,0,0,1,2525.27,3317.709Z" transform="translate(-2513.656 -3306.713)" fill="#ccc"/></g><g transform="translate(99.238 24.34)"><circle cx="6.382" cy="6.382" r="6.382" transform="translate(4.633 4.816)" fill="#fff"/><path d="M2680.747,3308.355a11.075,11.075,0,1,1-11.075-11.075A11.075,11.075,0,0,1,2680.747,3308.355Zm-2.991,0a8.083,8.083,0,1,0-8.083,8.083A8.083,8.083,0,0,0,2677.755,3308.355Z" transform="translate(-2658.597 -3297.28)" fill="#444"/><path d="M2680.454,3311.053a8.083,8.083,0,1,1-8.083-8.083A8.083,8.083,0,0,1,2680.454,3311.053Zm-1.825,0a6.259,6.259,0,1,0-6.259,6.259A6.258,6.258,0,0,0,2678.629,3311.053Z" transform="translate(-2661.296 -3299.979)" fill="#515151"/><path d="M2680.329,3312.207a6.8,6.8,0,1,1-6.8-6.8A6.8,6.8,0,0,1,2680.329,3312.207Zm-12.552,1.416a5.36,5.36,0,0,0,2.909-2.469,4.963,4.963,0,0,0-1.022-3.438,5.629,5.629,0,0,0-2.064,4.492A5.922,5.922,0,0,0,2667.777,3313.623Zm4.49,1.009c-1.206-.974-3.289-.392-4.2-.117a5.772,5.772,0,0,0,5.042,3.6A5.158,5.158,0,0,0,2672.266,3314.631Zm1.258-5.335a5.366,5.366,0,0,0,3.223-2.057,5.9,5.9,0,0,0-3.223-.957,5.446,5.446,0,0,0-3.1.883A5.112,5.112,0,0,0,2673.524,3309.3Zm5.459,5.2c-.959-.278-2.92-.8-4.08.132a5.154,5.154,0,0,0-.846,3.473A5.746,5.746,0,0,0,2678.983,3314.5Zm.3-.923a5.917,5.917,0,0,0,.166-1.369,5.681,5.681,0,0,0-2.009-4.441,4.95,4.95,0,0,0-.956,3.388A5.256,5.256,0,0,0,2679.283,3313.576Z" transform="translate(-2662.449 -3301.132)" fill="#ccc"/><path d="M2679.778,3317.133a1.179,1.179,0,1,1-1.179-1.179A1.178,1.178,0,0,1,2679.778,3317.133Z" transform="translate(-2667.525 -3306.137)" fill="#5b5b5b"/><path d="M2679.716,3317.709a.54.54,0,1,1-.54-.54A.54.54,0,0,1,2679.716,3317.709Z" transform="translate(-2668.102 -3306.713)" fill="#ccc"/></g></g></g></g></svg>